<svg width="30" height="30" viewBox="0 0 25 25" fill="none" xmlns="http://www.w3.org/2000/svg">
    <path d="M12.4058 17.7625C15.1672 17.7625 17.4058 15.5239 17.4058 12.7625C17.4058 10.0011 15.1672 7.76251 12.4058 7.76251C9.64434 7.76251 7.40576 10.0011 7.40576 12.7625C7.40576 15.5239 9.64434 17.7625 12.4058 17.7625Z"
          stroke="rgb(196, 201, 212)" stroke-width="2" stroke-linecap="round"
          stroke-linejoin="round" stroke-dashoffset="0px" stroke-dasharray="0px 31.420391082763672px"
          transform-origin="12.405779838562012px 12.762505054473877px"
          style="transform: scale(0); transform-origin: 12.4058px 12.7625px;"></path>
    <path d="M12.4058 1.76251V3.76251" stroke="rgb(196, 201, 212)" stroke-width="2"
          stroke-linecap="round" stroke-linejoin="round" stroke-dashoffset="0px" stroke-dasharray="0px 2px"
          transform-origin="12.405799865722656px 2.762510061264038px"
          style="transform: scale(0); transform-origin: 12.4058px 2.76251px;"></path>
    <path d="M12.4058 21.7625V23.7625" stroke="rgb(196, 201, 212)" stroke-width="2"
          stroke-linecap="round" stroke-linejoin="round" stroke-dashoffset="0px" stroke-dasharray="0px 2px"
          transform-origin="12.405799865722656px 22.762500762939453px"
          style="transform: scale(0); transform-origin: 12.4058px 22.7625px;"></path>
    <path d="M4.62598 4.98248L6.04598 6.40248" stroke="rgb(196, 201, 212)" stroke-width="2"
          stroke-linecap="round" stroke-linejoin="round" stroke-dashoffset="0px"
          stroke-dasharray="0px 2.008183240890503px" transform-origin="5.33597993850708px 5.692480087280273px"
          style="transform: scale(0); transform-origin: 5.33598px 5.69248px;"></path>
    <path d="M18.7656 19.1225L20.1856 20.5425" stroke="rgb(196, 201, 212)" stroke-width="2"
          stroke-linecap="round" stroke-linejoin="round" stroke-dashoffset="0px"
          stroke-dasharray="0px 2.008183240890503px" transform-origin="19.475600242614746px 19.832499504089355px"
          style="transform: scale(0); transform-origin: 19.4756px 19.8325px;"></path>
    <path d="M1.40576 12.7625H3.40576" stroke="rgb(196, 201, 212)" stroke-width="2"
          stroke-linecap="round" stroke-linejoin="round" stroke-dashoffset="0px" stroke-dasharray="0px 2px"
          transform-origin="2.4057600498199463px 12.762499809265137px"
          style="transform: scale(0); transform-origin: 2.40576px 12.7625px;"></path>
    <path d="M21.4058 12.7625H23.4058" stroke="rgb(196, 201, 212)" stroke-width="2"
          stroke-linecap="round" stroke-linejoin="round" stroke-dashoffset="0px" stroke-dasharray="0px 2px"
          transform-origin="22.405799865722656px 12.762499809265137px"
          style="transform: scale(0); transform-origin: 22.4058px 12.7625px;"></path>
    <path d="M4.62598 20.5425L6.04598 19.1225" stroke="rgb(196, 201, 212)" stroke-width="2"
          stroke-linecap="round" stroke-linejoin="round" stroke-dashoffset="0px"
          stroke-dasharray="0px 2.008183240890503px" transform-origin="5.33597993850708px 19.832499504089355px"
          style="transform: scale(0); transform-origin: 5.33598px 19.8325px;"></path>
    <path d="M18.7656 6.40248L20.1856 4.98248" stroke="rgb(196, 201, 212)" stroke-width="2"
          stroke-linecap="round" stroke-linejoin="round" stroke-dashoffset="0px"
          stroke-dasharray="0px 2.008183240890503px" transform-origin="19.475600242614746px 5.692480087280273px"
          style="transform: scale(0); transform-origin: 19.4756px 5.69248px;"></path>
    <path d="M21.1918 13.2013C21.0345 14.9035 20.3957 16.5257 19.35 17.8781C18.3044 19.2305 16.8953 20.2571 15.2875 20.8379C13.6797 21.4186 11.9398 21.5294 10.2713 21.1574C8.60281 20.7854 7.07479 19.9459 5.86602 18.7371C4.65725 17.5283 3.81774 16.0003 3.4457 14.3318C3.07367 12.6633 3.18451 10.9234 3.76526 9.31561C4.346 7.70783 5.37263 6.29868 6.72501 5.25307C8.07739 4.20746 9.69959 3.56862 11.4018 3.41132C10.4052 4.75958 9.92564 6.42077 10.0503 8.09273C10.175 9.76469 10.8957 11.3364 12.0812 12.5219C13.2667 13.7075 14.8384 14.4281 16.5104 14.5528C18.1823 14.6775 19.8435 14.1979 21.1918 13.2013Z"
          stroke="rgb(196, 201, 212)" stroke-width="2" stroke-linecap="round"
          stroke-linejoin="round" stroke-dashoffset="0px" stroke-dasharray="60.659881591796875px 60.659881591796875px"
          transform-origin="12.210889101028442px 12.392216920852661px"
          style="transform: none; transform-origin: 12.2109px 12.3922px;"></path>
</svg>
